<?xml version="1.0" encoding="UTF-8"?>
<svg id="Layer_2" data-name="Layer 2" xmlns="http://www.w3.org/2000/svg" viewBox="0 0 100 100">
  <defs>
    <style>
      .cls-1 {
        fill: #fff;
      }

      .cls-2 {
        fill: none;
      }

      .cls-3 {
        fill: #cc171d;
      }
    </style>
  </defs>
  <g id="Layer_1-2" data-name="Layer 1">
    <g>
      <rect class="cls-2" width="100" height="100"/>
      <g>
        <g>
          <path class="cls-3" d="M87.07,43.12c0,15.18-12.29,27.47-27.47,27.47s-27.47-12.3-27.47-27.47,12.3-27.47,27.47-27.47c2.03,0,4.02.22,5.93.64-1.3.57-2.93,1.08-5.03,1.65-1.59.44-2.69,1.89-2.69,3.52s1.1,3.09,2.69,3.53c8.14,2.25,9.21,3.32,11.45,11.45.44,1.59,1.89,2.69,3.53,2.69s3.09-1.1,3.53-2.69c1.17-4.24,2.02-6.55,3.72-8.13,2.75,4.27,4.34,9.36,4.34,14.81Z"/>
          <circle class="cls-3" cx="22.53" cy="80.52" r="13.89"/>
        </g>
        <path class="cls-1" d="M89.98,19.67c-8.75-2.42-10.29-3.96-12.7-12.71-.22-.81-.96-1.36-1.8-1.36s-1.58.56-1.8,1.36c-1.53,5.56-2.72,8.21-5.62,10.02-.2.13-.41.24-.63.36-.07.04-.14.08-.22.12-.39.21-.81.4-1.25.58-.14.06-.29.13-.44.18-1.25.49-2.74.96-4.54,1.45-.81.22-1.37.96-1.37,1.79s.56,1.58,1.37,1.8c8.75,2.42,10.29,3.96,12.7,12.7.22.82.97,1.37,1.8,1.37s1.58-.56,1.8-1.37c.08-.3.16-.58.24-.86.08-.28.16-.56.24-.82.31-1.06.62-1.99.95-2.82.07-.19.14-.37.22-.55.43-1.02.89-1.88,1.43-2.62.17-.24.35-.48.56-.69.09-.12.2-.23.32-.34.06-.07.13-.14.22-.22.08-.08.16-.16.25-.23,1.77-1.52,4.26-2.45,8.27-3.56.81-.22,1.37-.96,1.37-1.8s-.56-1.57-1.37-1.79ZM75.48,29.55c-1.74-4.13-3.95-6.35-8.09-8.09,4.13-1.74,6.35-3.95,8.09-8.09,1.75,4.13,3.95,6.35,8.09,8.09-4.14,1.74-6.36,3.95-8.09,8.09Z"/>
      </g>
    </g>
  </g>
</svg>